<svg width="41" height="40" viewBox="0 0 41 40" fill="none" xmlns="http://www.w3.org/2000/svg">
<path d="M40.213 10.2059C40.2259 8.97748 40.0916 7.75198 39.813 6.55555C39.2846 4.37203 38.0428 2.70523 36.1793 1.48346C35.229 0.872536 34.1647 0.460335 33.0508 0.271689C32.1893 0.123342 31.3179 0.0397679 30.4439 0.0216685C30.3772 0.0166681 30.3055 0.00500042 30.2372 0H10.1955C9.94216 0.0166681 9.69047 0.0283357 9.43712 0.0433369C8.19202 0.11501 6.95358 0.248354 5.78182 0.711726C3.55496 1.59513 1.94816 3.13193 1.00642 5.34545C0.68639 6.09217 0.519709 6.88724 0.401366 7.69231C0.309233 8.3443 0.253586 9.00094 0.234686 9.65914C0.234686 9.71248 0.223018 9.76248 0.218018 9.81415V30.1875C0.234686 30.4209 0.246353 30.6592 0.263021 30.8942C0.346362 32.2527 0.519709 33.6011 1.09142 34.8496C2.17485 37.2164 3.98833 38.7716 6.48187 39.52C7.18193 39.7316 7.90866 39.8316 8.63705 39.9C9.56213 39.9883 10.4872 40 11.4156 40H29.8005C30.6756 40 31.5473 39.9433 32.4174 39.8333C33.7892 39.6566 35.0793 39.2499 36.2444 38.4832C37.6265 37.5895 38.716 36.3099 39.378 34.8029C39.688 34.1028 39.8663 33.3528 39.9947 32.596C40.183 31.471 40.2247 30.3325 40.223 29.1958C40.2197 22.8619 40.223 16.5364 40.218 10.2059H40.213ZM29.5071 16.8564V26.3772C29.5071 27.0723 29.4105 27.7556 29.1004 28.3874C28.6171 29.3708 27.8337 29.9908 26.7869 30.2875C26.2035 30.4542 25.6101 30.5492 25.0034 30.5759C23.42 30.6509 22.0482 29.5758 21.7648 28.0157C21.6458 27.3421 21.7505 26.648 22.0629 26.0395C22.3753 25.4309 22.8782 24.9413 23.495 24.6454C24.0333 24.3787 24.6117 24.2287 25.1918 24.1053C25.8218 23.9687 26.4552 23.8503 27.0819 23.7053C27.5386 23.6003 27.8437 23.3219 27.932 22.8452C27.9546 22.7395 27.9658 22.6317 27.9653 22.5235C27.9653 19.4983 27.9653 16.473 27.962 13.4511C27.9609 13.3469 27.9463 13.2432 27.9187 13.1428C27.852 12.8927 27.6686 12.7377 27.412 12.7527C27.1453 12.7694 26.8819 12.8111 26.6202 12.8627C25.3534 13.1128 24.0867 13.3678 22.8199 13.6228L18.9429 14.4062L16.6527 14.8696C16.6261 14.8746 16.5994 14.8862 16.5727 14.8912C16.111 15.0196 15.9443 15.2296 15.9227 15.708C15.9193 15.778 15.9227 15.8513 15.9227 15.9247C15.9193 20.2617 15.9227 24.5987 15.9177 28.9341C15.9177 29.6341 15.8393 30.3275 15.5593 30.9792C15.0959 32.046 14.2759 32.7127 13.1691 33.0344C12.5857 33.2011 11.9857 33.3011 11.3773 33.3211C9.77715 33.3811 8.45204 32.321 8.17702 30.7476C7.94366 29.3941 8.56038 27.939 10.1005 27.2889C10.6956 27.0389 11.3173 26.9022 11.9473 26.7722C12.4257 26.6722 12.9057 26.5789 13.3808 26.4772C14.0192 26.3389 14.3525 25.9388 14.3809 25.2871V25.0371C14.3809 20.1033 14.3809 15.1663 14.3842 10.2325C14.3842 10.0275 14.4059 9.81582 14.4542 9.6158C14.5709 9.14076 14.9092 8.86907 15.3643 8.7524C15.7893 8.64239 16.2227 8.56571 16.6544 8.47737C17.8762 8.22735 19.0979 7.984 20.3214 7.73731L24.105 6.97058C25.2218 6.74723 26.3385 6.52054 27.4553 6.29886C27.822 6.22719 28.1937 6.15218 28.562 6.12218C29.0788 6.08051 29.4338 6.40553 29.4855 6.92558C29.4988 7.04725 29.5055 7.17226 29.5055 7.29728C29.5088 10.4809 29.5088 13.6678 29.5055 16.8514L29.5071 16.8564Z" fill="#070707"/>
</svg>
