<svg width="48" height="34" viewBox="0 0 48 34" fill="none" xmlns="http://www.w3.org/2000/svg">
<path d="M46.2323 5.59557C45.9586 4.61496 45.4366 3.72154 44.7167 3.00164C43.9968 2.28175 43.1034 1.75974 42.1228 1.48607C38.4423 0.500028 23.63 0.500028 23.63 0.500028C23.63 0.500028 8.85513 0.480347 5.1373 1.48607C4.15669 1.75974 3.26326 2.28175 2.54337 3.00164C1.82348 3.72154 1.30147 4.61496 1.0278 5.59557C0.330131 9.36361 -0.0138232 13.1886 0.000425105 17.0207C-0.0111296 20.8383 0.332813 24.6487 1.0278 28.4025C1.30147 29.3831 1.82348 30.2765 2.54337 30.9964C3.26326 31.7163 4.15669 32.2383 5.1373 32.512C8.8138 33.5 23.63 33.5 23.63 33.5C23.63 33.5 38.403 33.5 42.1228 32.512C43.1034 32.2383 43.9968 31.7163 44.7167 30.9964C45.4366 30.2765 45.9586 29.3831 46.2323 28.4025C46.9127 24.6473 47.2422 20.8369 47.2164 17.0207C47.2449 13.19 46.9154 9.36498 46.2323 5.59557ZM18.9025 24.0883V9.9314L31.231 17.0207L18.9025 24.0883Z" fill="#070707"/>
</svg>
